<svg xmlns="http://www.w3.org/2000/svg" xmlns:xlink="http://www.w3.org/1999/xlink" viewBox="0 0 65 65" fill="#fff" fill-rule="evenodd" stroke="#000" stroke-linecap="round" stroke-linejoin="round"><use xlink:href="#D" x=".5" y=".5"/><defs><radialGradient id="A" cx="-17%" cy="162%" fx="-17%" fy="162%" r="377%"><stop offset="0%" stop-color="#fed576"/><stop offset="26.3%" stop-color="#f47133"/><stop offset="60.9%" stop-color="#bc3081"/><stop offset="100%" stop-color="#4c63d2"/></radialGradient><radialGradient id="B" cx="-449%" cy="733%" fx="-449%" fy="733%" r="1576%"><stop offset="0%" stop-color="#fed576"/><stop offset="26.3%" stop-color="#f47133"/><stop offset="60.9%" stop-color="#bc3081"/><stop offset="100%" stop-color="#4c63d2"/></radialGradient><radialGradient id="C" cx="16%" cy="107%" fx="16%" fy="107%" r="193%"><stop offset="0%" stop-color="#fed576"/><stop offset="26.3%" stop-color="#f47133"/><stop offset="60.9%" stop-color="#bc3081"/><stop offset="100%" stop-color="#4c63d2"/></radialGradient></defs><symbol id="D" overflow="visible"><g stroke="none" fill-rule="nonzero"><path d="M32.028 15.637c-.563 0-1.119.029-1.668.085s-1.085.139-1.621.249-1.054.245-1.566.404l-1.502.554-1.43.691-1.35.821-1.261.943-1.163 1.057-1.058 1.163-.944 1.259-.82 1.348-.691 1.428c-.209.491-.393.992-.552 1.501a16.21 16.21 0 0 0-.405 1.564c-.11.535-.193 1.076-.249 1.619s-.085 1.104-.085 1.666c0 .556.028 1.113.085 1.666a16.21 16.21 0 0 0 .249 1.619 16.06 16.06 0 0 0 .405 1.564 16.15 16.15 0 0 0 .552 1.501l.691 1.428.82 1.348.944 1.26 1.058 1.163 1.163 1.057 1.261.943 1.35.821 1.43.691 1.502.554 1.566.404a16.27 16.27 0 0 0 1.621.249c.554.056 1.111.085 1.668.085s1.114-.028 1.668-.085c.544-.056 1.085-.139 1.621-.249l1.566-.404 1.502-.554 1.43-.691 1.35-.821 1.261-.943 1.164-1.057 1.058-1.163.944-1.26.82-1.348.691-1.428.552-1.501a16.21 16.21 0 0 0 .405-1.564l.249-1.62c.114-1.108.114-2.225 0-3.333a16.18 16.18 0 0 0-.249-1.619c-.109-.528-.244-1.05-.405-1.564l-.552-1.501-.691-1.428-.82-1.348-.944-1.259-1.058-1.163-1.164-1.057-1.261-.943-1.35-.821-1.43-.691-1.502-.554-1.566-.404-1.621-.249c-.554-.057-1.111-.085-1.668-.085zm0 5.644a10.97 10.97 0 0 1 1.101.055l1.066.161 1.03.262.984.358.938.451.882.534.824.614.76.689.69.759.615.823.535.883.451.937.359.985a10.53 10.53 0 0 1 .262 1.029c.071.35.123.706.161 1.067l.055 1.1a10.96 10.96 0 0 1-.055 1.1 10.79 10.79 0 0 1-.161 1.067l-.262 1.029-.359.985-.451.937-.535.883-.615.824-.69.759-.76.689-.824.615-.882.534-.938.451-.984.358-1.03.262-1.066.161c-.366.037-.733.055-1.101.055a11.04 11.04 0 0 1-1.101-.055l-1.066-.161c-.35-.071-.694-.159-1.03-.262l-.984-.358-.938-.451-.882-.534-.824-.615-.76-.689-.69-.759-.615-.824-.535-.883-.451-.937-.359-.985-.262-1.029-.161-1.067a10.99 10.99 0 0 1-.055-1.1c0-.367.018-.735.055-1.1a10.73 10.73 0 0 1 .161-1.067l.263-1.029.359-.985.451-.937.535-.883.615-.823.69-.759.76-.689.824-.614.882-.534.938-.451a10.69 10.69 0 0 1 .986-.358l1.03-.262c.35-.071.706-.123 1.066-.161a11.04 11.04 0 0 1 1.101-.055z" fill="url(#A)"/><path d="M49.059 10.986a3.86 3.86 0 0 0-.389.02l-.385.059-.377.097a3.9 3.9 0 0 0-.366.134c-.12.051-.237.108-.351.171l-.332.205a3.86 3.86 0 0 0-.31.238l-.285.267c-.09.094-.176.192-.257.295l-.226.319-.194.34a3.93 3.93 0 0 0-.159.358 3.92 3.92 0 0 0-.123.372c-.035.126-.063.254-.085.383s-.038.259-.047.389l-.01.278c0 .131.007.262.02.392l.058.388c.026.128.058.255.096.38l.134.369c.051.12.107.238.169.353a3.91 3.91 0 0 0 .204.334l.236.312c.084.1.172.196.266.287s.191.177.293.259a3.9 3.9 0 0 0 .317.228l.338.195.355.16.37.124a3.83 3.83 0 0 0 .38.086l.387.047.276.01a3.86 3.86 0 0 0 .389-.019l.385-.059c.127-.026.253-.058.377-.097a3.87 3.87 0 0 0 .366-.134l.351-.171.332-.205c.107-.074.211-.153.31-.237a3.89 3.89 0 0 0 .285-.267l.257-.295.227-.319a3.92 3.92 0 0 0 .194-.34l.159-.358a3.95 3.95 0 0 0 .123-.372l.085-.383a3.91 3.91 0 0 0 .047-.389l.01-.278a3.94 3.94 0 0 0-.02-.392c-.013-.13-.032-.26-.058-.388s-.058-.255-.096-.38a3.91 3.91 0 0 0-.134-.368l-.17-.353-.204-.334-.236-.312c-.084-.1-.172-.196-.265-.287s-.191-.178-.293-.259l-.317-.228-.338-.195-.355-.16-.37-.124-.38-.086-.387-.047-.276-.01z" fill="url(#B)"/><path d="M28.924.001c-1.78-.003-3.369.005-4.796.025l-3.826.103-3.034.196-1.275.139-1.144.168-1.035.2-.947.234-.883.27-.84.308-1.641.737-1.192.651-1.074.726-1.031.857L5.144 5.66 3.93 7.034l-.5.658-.444.663-.398.685-.363.725c-.233.501-.451 1.041-.668 1.643l-.433 1.353-.348 1.482-.272 1.722L.3 18.034.156 20.56.064 23.654l-.05 3.772L0 31.986l.042 6.63.131 5.023.101 1.962.126 1.626.152 1.311.179 1.019.46 1.771.58 1.653.702 1.536a16.53 16.53 0 0 0 .824 1.422 15.65 15.65 0 0 0 .948 1.309 15.52 15.52 0 0 0 1.073 1.198 15.82 15.82 0 0 0 1.199 1.089l1.327.982 1.269.783 1.29.653 1.36.534 1.478.427 1.646.333 1.863.25 2.129.179 2.444.12 5.74.088 7.616-.015 7.212-.101 2.742-.077 1.786-.092 1.121-.111 1.067-.149 1.022-.189.985-.23.957-.274.938-.321.927-.369.925-.42 1.191-.605c.315-.173.619-.366.909-.579s.571-.451.899-.753l1.16-1.127 1.04-1.075.759-.884c.207-.263.4-.537.578-.821l.497-.883.659-1.353.52-1.261.4-1.291.301-1.443.222-1.718.164-2.115.125-2.634.107-3.276.077-3.65.029-3.816-.069-7.495-.092-3.357-.125-2.882-.156-2.247-.182-1.451-.24-1.098-.284-1.057-.328-1.014-.369-.973-.414-.93-.458-.888-.502-.846-.545-.804-.588-.762-.632-.719-.675-.677-.718-.635-.762-.592-.805-.55-.849-.508-.892-.465-1.418-.651-1.365-.506a14.52 14.52 0 0 0-1.483-.381L48.275.49 46.042.299 43.178.174 39.511.092 34.869.038 28.926.001zm3.087 5.639l8.571.049 3.233.062 1.968.088 1.486.164 1.353.234 1.234.308 1.129.388 1.036.474c.329.171.649.36.958.565s.604.424.892.661l.839.762a11.28 11.28 0 0 1 .797.879 9.61 9.61 0 0 1 .675.939c.208.331.396.674.562 1.028.17.361.322.742.459 1.148l.367 1.296.284 1.475.212 1.684.149 1.922.085 2.127.06 2.915.046 7.139-.052 7.132-.063 2.906-.086 2.114-.199 2.546-.124 1.011-.151.887-.186.8-.227.75-.277.737-.333.762-.329.655-.364.619-.4.583-.436.548-.473.513-.511.478-.549.444-.587.41-.627.376-.666.343-.707.31-.748.278a16.86 16.86 0 0 1-1.622.46l-1.794.336c-.232.034-.764.066-1.527.095l-2.907.081-8.24.107-8.625.014-3.387-.036-2.199-.069-1.622-.114-1.411-.143-1.232-.18-1.086-.226-.972-.278-.891-.339-.842-.408-.826-.485-.604-.409-.562-.432-.521-.459-.481-.488-.442-.519-.405-.554-.368-.591-.334-.629-.3-.672-.268-.716c-.168-.493-.316-1.018-.444-1.578l-.331-1.788-.227-2.019-.105-2.378-.056-3.675.02-9.369.161-8.952.123-3.154.07-1.043.075-.609.257-1.141.274-.997.304-.879.347-.787.403-.723.472-.684.554-.672.65-.687.852-.788c.278-.237.568-.459.869-.666.296-.205.599-.388.915-.555s.644-.319.99-.456l1.093-.369 1.224-.29 1.384-.223 1.572-.169 1.945-.089 3.217-.064 8.558-.052z" fill="url(#C)"/></g></symbol></svg>