<svg width="35px" height="40px" viewBox="0 0 35 30" version="1.1" xmlns="http://www.w3.org/2000/svg" xmlns:xlink="http://www.w3.org/1999/xlink">
    <!-- Generator: Sketch 51.3 (57544) - http://www.bohemiancoding.com/sketch -->
    <desc>Created with Sketch.</desc>
    <defs>
        <linearGradient x1="26.2091023%" y1="25.7297241%" x2="95.735819%" y2="73.5418903%" id="linearGradient-1">
            <stop stop-color="#DE0F66" offset="0%"></stop>
            <stop stop-color="#5A08EA" offset="100%"></stop>
        </linearGradient>
    </defs>
    <g id="Page-1" stroke="none" stroke-width="1" fill="none" fill-rule="evenodd">
        <g id="4" transform="translate(-327.000000, -56.000000)" fill="url(#linearGradient-1)" fill-rule="nonzero">
            <path d="M327.05,83.2 C327.05,79.92 327.05,76.65 327.05,73.37 C326.911872,65.0663999 332.793379,57.8783615 340.96,56.37 C349.312717,54.6269051 357.663473,59.3455956 360.48,67.4 C362.083027,71.7852264 361.823217,76.6352286 359.760885,80.8241055 C357.698552,85.0129824 354.013069,88.1764042 349.56,89.58 C346.084344,90.7731311 342.305114,90.7413729 338.85,89.49 C338.144237,89.1686919 337.309885,89.3856233 336.85,90.01 C334.85,92.05 332.85,94.0766667 330.85,96.09 C329.48,97.45 328.27,97.53 327.44,96.25 C327.155246,95.6942798 327.020796,95.0737445 327.05,94.45 C327.05,90.7 327.05,86.94 327.05,83.18 L327.05,83.2 Z M330.85,90.41 C331.113655,90.2377624 331.367391,90.0507991 331.61,89.85 C332.97,88.5 334.35,87.18 335.66,85.79 C336.38456,84.9433534 337.604116,84.7219955 338.58,85.26 C339.517811,85.6892221 340.495949,86.0242009 341.5,86.26 C347.063816,87.4226205 352.755354,84.9458356 355.696658,80.0820443 C358.637962,75.2182529 358.187995,69.027486 354.574285,64.6401365 C350.960575,60.252787 344.970706,58.6250485 339.633485,60.5799953 C334.296265,62.5349421 330.774906,67.6465066 330.85,73.33 C330.85,78.52 330.85,83.72 330.85,88.92 L330.85,90.41 Z" id="Shape"></path>
        </g>
    </g>
</svg>